  0
SECTION
  2
HEADER
  9
$ACADVER
  1
AC1027
  9
$ACADMAINTVER
 70
105
  9
$DWGCODEPAGE
  3
ANSI_1252
  9
$LASTSAVEDBY
  1
ezdxf
  9
$REQUIREDVERSIONS
160
0
  9
$INSBASE
 10
0.0
 20
0.0
 30
0.0
  9
$EXTMIN
 10
1e+20
 20
1e+20
 30
1e+20
  9
$EXTMAX
 10
-1e+20
 20
-1e+20
 30
-1e+20
  9
$LIMMIN
 10
0.0
 20
0.0
  9
$LIMMAX
 10
420.0
 20
297.0
  9
$ORTHOMODE
 70
0
  9
$REGENMODE
 70
1
  9
$FILLMODE
 70
1
  9
$QTEXTMODE
 70
0
  9
$MIRRTEXT
 70
1
  9
$LTSCALE
 40
1.0
  9
$ATTMODE
 70
1
  9
$TEXTSIZE
 40
2.5
  9
$TRACEWID
 40
1.0
  9
$TEXTSTYLE
  7
Standard
  9
$CLAYER
  8
0
  9
$CELTYPE
  6
ByLayer
  9
$CECOLOR
 62
256
  9
$CELTSCALE
 40
1.0
  9
$DISPSILH
 70
0
  9
$DIMSCALE
 40
1.0
  9
$DIMASZ
 40
2.5
  9
$DIMEXO
 40
0.625
  9
$DIMDLI
 40
3.75
  9
$DIMRND
 40
0.0
  9
$DIMDLE
 40
0.0
  9
$DIMEXE
 40
1.25
  9
$DIMTP
 40
0.0
  9
$DIMTM
 40
0.0
  9
$DIMTXT
 40
2.5
  9
$DIMCEN
 40
2.5
  9
$DIMTSZ
 40
0.0
  9
$DIMTOL
 70
0
  9
$DIMLIM
 70
0
  9
$DIMTIH
 70
0
  9
$DIMTOH
 70
0
  9
$DIMSE1
 70
0
  9
$DIMSE2
 70
0
  9
$DIMTAD
 70
1
  9
$DIMZIN
 70
8
  9
$DIMBLK
  1

  9
$DIMASO
 70
1
  9
$DIMSHO
 70
1
  9
$DIMPOST
  1

  9
$DIMAPOST
  1

  9
$DIMALT
 70
0
  9
$DIMALTD
 70
3
  9
$DIMALTF
 40
0.03937007874
  9
$DIMLFAC
 40
1.0
  9
$DIMTOFL
 70
1
  9
$DIMTVP
 40
0.0
  9
$DIMTIX
 70
0
  9
$DIMSOXD
 70
0
  9
$DIMSAH
 70
0
  9
$DIMBLK1
  1

  9
$DIMBLK2
  1

  9
$DIMSTYLE
  2
ISO-25
  9
$DIMCLRD
 70
0
  9
$DIMCLRE
 70
0
  9
$DIMCLRT
 70
0
  9
$DIMTFAC
 40
1.0
  9
$DIMGAP
 40
0.625
  9
$DIMJUST
 70
0
  9
$DIMSD1
 70
0
  9
$DIMSD2
 70
0
  9
$DIMTOLJ
 70
0
  9
$DIMTZIN
 70
8
  9
$DIMALTZ
 70
0
  9
$DIMALTTZ
 70
0
  9
$DIMUPT
 70
0
  9
$DIMDEC
 70
2
  9
$DIMTDEC
 70
2
  9
$DIMALTU
 70
2
  9
$DIMALTTD
 70
3
  9
$DIMTXSTY
  7
Standard
  9
$DIMAUNIT
 70
0
  9
$DIMADEC
 70
0
  9
$DIMALTRND
 40
0.0
  9
$DIMAZIN
 70
0
  9
$DIMDSEP
 70
44
  9
$DIMATFIT
 70
3
  9
$DIMFRAC
 70
0
  9
$DIMLDRBLK
  1

  9
$DIMLUNIT
 70
2
  9
$DIMLWD
 70
-2
  9
$DIMLWE
 70
-2
  9
$DIMTMOVE
 70
0
  9
$DIMFXL
 40
1.0
  9
$DIMFXLON
 70
0
  9
$DIMJOGANG
 40
0.785398163397
  9
$DIMTFILL
 70
0
  9
$DIMTFILLCLR
 70
0
  9
$DIMARCSYM
 70
0
  9
$DIMLTYPE
  6

  9
$DIMLTEX1
  6

  9
$DIMLTEX2
  6

  9
$DIMTXTDIRECTION
 70
0
  9
$LUNITS
 70
2
  9
$LUPREC
 70
4
  9
$SKETCHINC
 40
1.0
  9
$FILLETRAD
 40
10.0
  9
$AUNITS
 70
0
  9
$AUPREC
 70
2
  9
$MENU
  1
.
  9
$ELEVATION
 40
0.0
  9
$PELEVATION
 40
0.0
  9
$THICKNESS
 40
0.0
  9
$LIMCHECK
 70
0
  9
$CHAMFERA
 40
0.0
  9
$CHAMFERB
 40
0.0
  9
$CHAMFERC
 40
0.0
  9
$CHAMFERD
 40
0.0
  9
$SKPOLY
 70
0
  9
$TDCREATE
 40
2461159.806990741
  9
$TDUCREATE
 40
2458532.153996898
  9
$TDUPDATE
 40
2461159.806990741
  9
$TDUUPDATE
 40
2458532.1544311
  9
$TDINDWG
 40
0.0
  9
$TDUSRTIMER
 40
0.0
  9
$USRTIMER
 70
1
  9
$ANGBASE
 50
0.0
  9
$ANGDIR
 70
0
  9
$PDMODE
 70
0
  9
$PDSIZE
 40
0.0
  9
$PLINEWID
 40
0.0
  9
$SPLFRAME
 70
0
  9
$SPLINETYPE
 70
6
  9
$SPLINESEGS
 70
8
  9
$HANDSEED
  5
35
  9
$SURFTAB1
 70
6
  9
$SURFTAB2
 70
6
  9
$SURFTYPE
 70
6
  9
$SURFU
 70
6
  9
$SURFV
 70
6
  9
$UCSBASE
  2

  9
$UCSNAME
  2

  9
$UCSORG
 10
0.0
 20
0.0
 30
0.0
  9
$UCSXDIR
 10
1.0
 20
0.0
 30
0.0
  9
$UCSYDIR
 10
0.0
 20
1.0
 30
0.0
  9
$UCSORTHOREF
  2

  9
$UCSORTHOVIEW
 70
0
  9
$UCSORGTOP
 10
0.0
 20
0.0
 30
0.0
  9
$UCSORGBOTTOM
 10
0.0
 20
0.0
 30
0.0
  9
$UCSORGLEFT
 10
0.0
 20
0.0
 30
0.0
  9
$UCSORGRIGHT
 10
0.0
 20
0.0
 30
0.0
  9
$UCSORGFRONT
 10
0.0
 20
0.0
 30
0.0
  9
$UCSORGBACK
 10
0.0
 20
0.0
 30
0.0
  9
$PUCSBASE
  2

  9
$PUCSNAME
  2

  9
$PUCSORG
 10
0.0
 20
0.0
 30
0.0
  9
$PUCSXDIR
 10
1.0
 20
0.0
 30
0.0
  9
$PUCSYDIR
 10
0.0
 20
1.0
 30
0.0
  9
$PUCSORTHOREF
  2

  9
$PUCSORTHOVIEW
 70
0
  9
$PUCSORGTOP
 10
0.0
 20
0.0
 30
0.0
  9
$PUCSORGBOTTOM
 10
0.0
 20
0.0
 30
0.0
  9
$PUCSORGLEFT
 10
0.0
 20
0.0
 30
0.0
  9
$PUCSORGRIGHT
 10
0.0
 20
0.0
 30
0.0
  9
$PUCSORGFRONT
 10
0.0
 20
0.0
 30
0.0
  9
$PUCSORGBACK
 10
0.0
 20
0.0
 30
0.0
  9
$USERI1
 70
0
  9
$USERI2
 70
0
  9
$USERI3
 70
0
  9
$USERI4
 70
0
  9
$USERI5
 70
0
  9
$USERR1
 40
0.0
  9
$USERR2
 40
0.0
  9
$USERR3
 40
0.0
  9
$USERR4
 40
0.0
  9
$USERR5
 40
0.0
  9
$WORLDVIEW
 70
1
  9
$SHADEDGE
 70
3
  9
$SHADEDIF
 70
70
  9
$TILEMODE
 70
1
  9
$MAXACTVP
 70
64
  9
$PINSBASE
 10
0.0
 20
0.0
 30
0.0
  9
$PLIMCHECK
 70
0
  9
$PEXTMIN
 10
1e+20
 20
1e+20
 30
1e+20
  9
$PEXTMAX
 10
-1e+20
 20
-1e+20
 30
-1e+20
  9
$PLIMMIN
 10
0.0
 20
0.0
  9
$PLIMMAX
 10
420.0
 20
297.0
  9
$UNITMODE
 70
0
  9
$VISRETAIN
 70
1
  9
$PLINEGEN
 70
0
  9
$PSLTSCALE
 70
1
  9
$TREEDEPTH
 70
3020
  9
$CMLSTYLE
  2
Standard
  9
$CMLJUST
 70
0
  9
$CMLSCALE
 40
20.0
  9
$PROXYGRAPHICS
 70
1
  9
$MEASUREMENT
 70
1
  9
$CELWEIGHT
370
-1
  9
$ENDCAPS
280
0
  9
$JOINSTYLE
280
0
  9
$LWDISPLAY
290
0
  9
$INSUNITS
 70
6
  9
$HYPERLINKBASE
  1

  9
$STYLESHEET
  1

  9
$XEDIT
290
1
  9
$CEPSNTYPE
380
0
  9
$PSTYLEMODE
290
1
  9
$FINGERPRINTGUID
  2
{3C494ABB-3377-451F-AC03-A9989C33492B}
  9
$VERSIONGUID
  2
{188369A7-A34D-4DC8-9CBE-23F0BA674AEB}
  9
$EXTNAMES
290
1
  9
$PSVPSCALE
 40
0.0
  9
$OLESTARTUP
290
0
  9
$SORTENTS
280
127
  9
$INDEXCTL
280
0
  9
$HIDETEXT
280
1
  9
$XCLIPFRAME
280
0
  9
$HALOGAP
280
0
  9
$OBSCOLOR
 70
257
  9
$OBSLTYPE
280
0
  9
$INTERSECTIONDISPLAY
280
0
  9
$INTERSECTIONCOLOR
 70
257
  9
$DIMASSOC
280
2
  9
$PROJECTNAME
  1

  9
$CAMERADISPLAY
290
0
  9
$LENSLENGTH
 40
50.0
  9
$CAMERAHEIGHT
 40
0.0
  9
$STEPSPERSEC
 40
24.0
  9
$STEPSIZE
 40
100.0
  9
$3DDWFPREC
 40
2.0
  9
$PSOLWIDTH
 40
0.005
  9
$PSOLHEIGHT
 40
0.08
  9
$LOFTANG1
 40
1.570796326795
  9
$LOFTANG2
 40
1.570796326795
  9
$LOFTMAG1
 40
0.0
  9
$LOFTMAG2
 40
0.0
  9
$LOFTPARAM
 70
7
  9
$LOFTNORMALS
280
1
  9
$LATITUDE
 40
37.795
  9
$LONGITUDE
 40
-122.394
  9
$NORTHDIRECTION
 40
0.0
  9
$TIMEZONE
 70
-8000
  9
$LIGHTGLYPHDISPLAY
280
1
  9
$TILEMODELIGHTSYNCH
280
1
  9
$CMATERIAL
347
20
  9
$SOLIDHIST
280
0
  9
$SHOWHIST
280
1
  9
$DWFFRAME
280
2
  9
$DGNFRAME
280
2
  9
$REALWORLDSCALE
290
1
  9
$INTERFERECOLOR
 62
256
  9
$CSHADOW
280
0
  9
$SHADOWPLANELOCATION
 40
0.0
  0
ENDSEC
  0
SECTION
  2
CLASSES
  0
CLASS
  1
ACDBDICTIONARYWDFLT
  2
AcDbDictionaryWithDefault
  3
ObjectDBX Classes
 90
0
 91
0
280
0
281
0
  0
CLASS
  1
SUN
  2
AcDbSun
  3
SCENEOE
 90
1153
 91
0
280
0
281
0
  0
CLASS
  1
VISUALSTYLE
  2
AcDbVisualStyle
  3
ObjectDBX Classes
 90
4095
 91
0
280
0
281
0
  0
CLASS
  1
MATERIAL
  2
AcDbMaterial
  3
ObjectDBX Classes
 90
1153
 91
0
280
0
281
0
  0
CLASS
  1
SCALE
  2
AcDbScale
  3
ObjectDBX Classes
 90
1153
 91
0
280
0
281
0
  0
CLASS
  1
TABLESTYLE
  2
AcDbTableStyle
  3
ObjectDBX Classes
 90
4095
 91
0
280
0
281
0
  0
CLASS
  1
MLEADERSTYLE
  2
AcDbMLeaderStyle
  3
ACDB_MLEADERSTYLE_CLASS
 90
4095
 91
0
280
0
281
0
  0
CLASS
  1
DICTIONARYVAR
  2
AcDbDictionaryVar
  3
ObjectDBX Classes
 90
0
 91
0
280
0
281
0
  0
CLASS
  1
CELLSTYLEMAP
  2
AcDbCellStyleMap
  3
ObjectDBX Classes
 90
1152
 91
0
280
0
281
0
  0
CLASS
  1
MENTALRAYRENDERSETTINGS
  2
AcDbMentalRayRenderSettings
  3
SCENEOE
 90
1024
 91
0
280
0
281
0
  0
CLASS
  1
ACDBDETAILVIEWSTYLE
  2
AcDbDetailViewStyle
  3
ObjectDBX Classes
 90
1025
 91
0
280
0
281
0
  0
CLASS
  1
ACDBSECTIONVIEWSTYLE
  2
AcDbSectionViewStyle
  3
ObjectDBX Classes
 90
1025
 91
0
280
0
281
0
  0
CLASS
  1
RASTERVARIABLES
  2
AcDbRasterVariables
  3
ISM
 90
0
 91
0
280
0
281
0
  0
CLASS
  1
ACDBPLACEHOLDER
  2
AcDbPlaceHolder
  3
ObjectDBX Classes
 90
0
 91
0
280
0
281
0
  0
CLASS
  1
LAYOUT
  2
AcDbLayout
  3
ObjectDBX Classes
 90
0
 91
0
280
0
281
0
  0
ENDSEC
  0
SECTION
  2
TABLES
  0
TABLE
  2
VPORT
  5
8
330
0
100
AcDbSymbolTable
 70
1
  0
VPORT
  5
23
330
8
100
AcDbSymbolTableRecord
100
AcDbViewportTableRecord
  2
*Active
 70
0
 10
0.0
 20
0.0
 11
1.0
 21
1.0
 12
0.0
 22
0.0
 13
0.0
 23
0.0
 14
0.5
 24
0.5
 15
0.5
 25
0.5
 16
0.0
 26
0.0
 36
1.0
 17
0.0
 27
0.0
 37
0.0
 40
1000.0
 41
1.34
 42
50.0
 43
0.0
 44
0.0
 50
0.0
 51
0.0
 71
0
 72
1000
 73
1
 74
3
 75
0
 76
0
 77
0
 78
0
281
0
 65
0
146
0.0
  0
ENDTAB
  0
TABLE
  2
LTYPE
  5
2
330
0
100
AcDbSymbolTable
 70
3
  0
LTYPE
  5
24
330
2
100
AcDbSymbolTableRecord
100
AcDbLinetypeTableRecord
  2
ByBlock
 70
0
  3

 72
65
 73
0
 40
0.0
  0
LTYPE
  5
25
330
2
100
AcDbSymbolTableRecord
100
AcDbLinetypeTableRecord
  2
ByLayer
 70
0
  3

 72
65
 73
0
 40
0.0
  0
LTYPE
  5
26
330
2
100
AcDbSymbolTableRecord
100
AcDbLinetypeTableRecord
  2
Continuous
 70
0
  3

 72
65
 73
0
 40
0.0
  0
ENDTAB
  0
TABLE
  2
LAYER
  5
1
330
0
100
AcDbSymbolTable
 70
2
  0
LAYER
  5
27
330
1
100
AcDbSymbolTableRecord
100
AcDbLayerTableRecord
  2
0
 70
0
 62
7
  6
Continuous
370
-3
390
13
347
21
  0
LAYER
  5
28
330
1
100
AcDbSymbolTableRecord
100
AcDbLayerTableRecord
  2
Defpoints
 70
0
 62
7
  6
Continuous
290
0
370
-3
390
13
347
21
  0
ENDTAB
  0
TABLE
  2
STYLE
  5
5
330
0
100
AcDbSymbolTable
 70
1
  0
STYLE
  5
29
330
5
100
AcDbSymbolTableRecord
100
AcDbTextStyleTableRecord
  2
Standard
 70
0
 40
0.0
 41
1.0
 50
0.0
 71
0
 42
2.5
  3
txt
  4

  0
ENDTAB
  0
TABLE
  2
VIEW
  5
7
330
0
100
AcDbSymbolTable
 70
0
  0
ENDTAB
  0
TABLE
  2
UCS
  5
6
330
0
100
AcDbSymbolTable
 70
0
  0
ENDTAB
  0
TABLE
  2
APPID
  5
3
330
0
100
AcDbSymbolTable
 70
3
  0
APPID
  5
2A
330
3
100
AcDbSymbolTableRecord
100
AcDbRegAppTableRecord
  2
ACAD
 70
0
  0
APPID
  5
32
330
3
100
AcDbSymbolTableRecord
100
AcDbRegAppTableRecord
  2
HATCHBACKGROUNDCOLOR
 70
0
  0
APPID
  5
33
330
3
100
AcDbSymbolTableRecord
100
AcDbRegAppTableRecord
  2
EZDXF
 70
0
  0
ENDTAB
  0
TABLE
  2
DIMSTYLE
  5
4
330
0
100
AcDbSymbolTable
 70
1
100
AcDbDimStyleTable
  0
DIMSTYLE
105
2B
330
4
100
AcDbSymbolTableRecord
100
AcDbDimStyleTableRecord
  2
Standard
 70
0
 40
1.0
 41
2.5
 42
0.625
 43
3.75
 44
1.25
 45
0.0
 46
0.0
 47
0.0
 48
0.0
 49
2.5
140
2.5
141
2.5
142
0.0
143
0.03937007874
144
1.0
145
0.0
146
1.0
147
0.625
148
0.0
 69
0
 70
0
 71
0
 72
0
 73
0
 74
0
 75
0
 76
0
 77
1
 78
8
 79
3
170
0
171
3
172
1
173
0
174
0
175
0
176
0
177
0
178
0
179
2
271
2
272
2
273
2
274
3
275
0
276
0
277
2
278
44
279
0
280
0
281
0
282
0
283
0
284
8
285
0
286
0
288
0
289
3
290
0
371
-2
372
-2
  0
ENDTAB
  0
TABLE
  2
BLOCK_RECORD
  5
9
330
0
100
AcDbSymbolTable
 70
2
  0
BLOCK_RECORD
  5
17
330
9
100
AcDbSymbolTableRecord
100
AcDbBlockTableRecord
  2
*Model_Space
340
1A
 70
0
280
1
281
0
  0
BLOCK_RECORD
  5
1B
330
9
100
AcDbSymbolTableRecord
100
AcDbBlockTableRecord
  2
*Paper_Space
340
1E
 70
0
280
1
281
0
  0
ENDTAB
  0
ENDSEC
  0
SECTION
  2
BLOCKS
  0
BLOCK
  5
18
330
17
100
AcDbEntity
  8
0
100
AcDbBlockBegin
  2
*Model_Space
 70
0
 10
0.0
 20
0.0
 30
0.0
  3
*Model_Space
  1

  0
ENDBLK
  5
19
330
17
100
AcDbEntity
  8
0
100
AcDbBlockEnd
  0
BLOCK
  5
1C
330
1B
100
AcDbEntity
  8
0
100
AcDbBlockBegin
  2
*Paper_Space
 70
0
 10
0.0
 20
0.0
 30
0.0
  3
*Paper_Space
  1

  0
ENDBLK
  5
1D
330
1B
100
AcDbEntity
  8
0
100
AcDbBlockEnd
  0
ENDSEC
  0
SECTION
  2
ENTITIES
  0
LWPOLYLINE
  5
2F
330
17
100
AcDbEntity
  8
0
100
AcDbPolyline
 90
272
 70
1
 10
0.0
 20
0.0
 10
3.7604890046296298
 20
0.02965856481481481
 10
7.531828703703703
 20
0.15393518518518517
 10
11.298828125
 20
0.42578125
 10
15.046296296296294
 20
0.898148148148148
 10
18.75904224537037
 20
1.623987268518518
 10
22.421875
 20
2.65625
 10
26.019603587962962
 20
4.04788773148148
 10
29.537037037037035
 20
5.851851851851851
 10
32.958984375
 20
8.12109375
 10
36.27025462962962
 20
10.90856481481481
 10
39.4556568287037
 20
14.267216435185183
 10
42.5
 20
18.25
 10
45.38809317129629
 20
22.909866898148145
 10
48.10474537037037
 20
28.29976851851851
 10
50.634765625
 20
34.47265625
 10
52.96296296296296
 20
41.481481481481474
 10
55.07414641203704
 20
49.37919560185183
 10
56.953125
 20
58.21875
 10
58.58470775462963
 20
68.0530960648148
 10
59.953703703703695
 20
78.93518518518515
 10
61.044921875
 20
90.91796875
 10
61.8431712962963
 20
104.05439814814812
 10
62.33326099537037
 20
118.39742476851848
 10
62.5
 20
134.0
 10
62.48454787865314
 20
142.0469172544382
 10
62.43964801031049
 20
153.0068279159163
 10
62.36748513851895
 20
166.39418461739356
 10
62.27024400682548
 20
181.72343999182962
 10
62.15010935877696
 20
198.50904667218387
 10
62.00926593792032
 20
216.26545729141574
 10
61.84989848780249
 20
234.50712448248476
 10
61.674191751970376
 20
252.74850087835028
 10
61.484330473970886
 20
270.5040391119718
 10
61.28249939735094
 20
287.28819181630877
 10
61.070883265657464
 20
302.6154116243206
 10
60.851666822437366
 20
316.0001511689668
 10
60.627034811237564
 20
326.95686308320677
 10
60.399171975604986
 20
335.0
 10
59.71573201133651
 20
354.49152542372883
 10
59.05343643616652
 20
373.9830508474576
 10
58.41228291489824
 20
393.47457627118644
 10
57.792269187215425
 20
412.96610169491527
 10
57.19339306762777
 20
432.45762711864404
 10
56.61565244543817
 20
451.9491525423729
 10
56.05904528471365
 20
471.4406779661017
 10
55.52356962423073
 20
490.93220338983053
 10
55.00922357746458
 20
510.4237288135593
 10
54.516005332534405
 20
529.9152542372881
 10
54.04391315218527
 20
549.4067796610169
 10
53.592945373755356
 20
568.8983050847457
 10
53.16310040913231
 20
588.3898305084746
 10
52.75437674474961
 20
607.8813559322034
 10
52.36677294153924
 20
627.3728813559321
 10
52.000287634920824
 20
646.8644067796611
 10
51.65491953476521
 20
666.3559322033898
 10
51.33066742537994
 20
685.8474576271186
 10
51.027530165487406
 20
705.3389830508474
 10
50.745506688199384
 20
724.8305084745763
 10
50.48459600100614
 20
744.3220338983051
 10
50.2447971857473
 20
763.8135593220338
 10
50.02610939861188
 20
783.3050847457628
 10
49.82853187011278
 20
802.7966101694915
 10
49.652063905065006
 20
822.2881355932203
 10
49.49670488259653
 20
841.7796610169491
 10
49.362454256119236
 20
861.271186440678
 10
49.249311553321604
 20
880.7627118644068
 10
49.1572763761651
 20
900.2542372881355
 10
49.086348400880524
 20
919.7457627118644
 10
49.036527377946186
 20
939.2372881355932
 10
49.007813132102456
 20
958.728813559322
 10
49.00020556234085
 20
978.2203389830509
 10
49.013704641896766
 20
997.7118644067797
 10
49.04831041825673
 20
1017.2033898305085
 10
49.10402301316208
 20
1036.6949152542372
 10
49.180842622594355
 20
1056.186440677966
 10
49.27876951679718
 20
1075.677966101695
 10
49.39780404027624
 20
1095.1694915254238
 10
49.53794661180291
 20
1114.6610169491526
 10
49.699197724410624
 20
1134.1525423728813
 10
49.88155794543127
 20
1153.6440677966102
 10
50.085027916476974
 20
1173.135593220339
 10
50.309608353461954
 20
1192.6271186440677
 10
50.5553000466316
 20
1212.1186440677966
 10
50.822103860540665
 20
1231.6101694915255
 10
51.110020734100544
 20
1251.1016949152543
 10
51.41905168058656
 20
1270.593220338983
 10
51.749197787641606
 20
1290.084745762712
 10
52.10046021731614
 20
1309.5762711864406
 10
52.47284020607913
 20
1329.0677966101694
 10
52.86633906483985
 20
1348.5593220338983
 10
53.280958178962464
 20
1368.050847457627
 10
53.7166990083133
 20
1387.542372881356
 10
54.173563087260845
 20
1407.0338983050847
 10
54.65155202472306
 20
1426.5254237288136
 10
55.15066750418191
 20
1446.0169491525423
 10
55.67091128371976
 20
1465.508474576271
 10
56.21228519604847
 20
1485.0
 10
56.38795432584368
 20
1493.1756215812716
 10
56.55099243008661
 20
1504.5005883051451
 10
56.70133843820601
 20
1518.4500399789974
 10
56.8389312796307
 20
1534.499116410207
 10
56.96370988378945
 20
1552.1229574061508
 10
57.07561318011102
 20
1570.7967027742066
 10
57.17458009802424
 20
1589.9954923217524
 10
57.260549566957856
 20
1609.1944658561654
 10
57.33346051634066
 20
1627.868763184823
 10
57.39325187560145
 20
1645.4935241151034
 10
57.439862574168984
 20
1661.5438884543835
 10
57.473231541472074
 20
1675.4949960100412
 10
57.49329770693949
 20
1686.8219865894544
 10
57.5
 20
1695.0
 10
57.40849247685186
 20
1707.01171875
 10
57.13252314814814
 20
1718.0729166666667
 10
56.669921875
 20
1728.22265625
 10
56.018518518518526
 20
1737.5000000000002
 10
55.176142939814824
 20
1745.9440104166672
 10
54.140625
 20
1753.59375
 10
52.90979456018519
 20
1760.4882812499998
 10
51.48148148148148
 20
1766.666666666667
 10
49.853515625
 20
1772.16796875
 10
48.02372685185185
 20
1777.0312499999998
 10
45.98994502314815
 20
1781.295572916667
 10
43.75
 20
1785.0
 10
41.30172164351852
 20
1788.1835937499998
 10
38.64293981481482
 20
1790.8854166666665
 10
35.771484375
 20
1793.14453125
 10
32.68518518518519
 20
1795.0
 10
29.381872106481488
 20
1796.4908854166667
 10
25.859375
 20
1797.65625
 10
22.115523726851855
 20
1798.53515625
 10
18.148148148148156
 20
1799.1666666666665
 10
13.955078125
 20
1799.58984375
 10
9.534143518518523
 20
1799.84375
 10
4.883174189814824
 20
1799.9674479166667
 10
0.0
 20
1800.0
 10
-4.883174189814824
 20
1799.9674479166667
 10
-9.534143518518523
 20
1799.84375
 10
-13.955078125
 20
1799.58984375
 10
-18.148148148148156
 20
1799.1666666666665
 10
-22.115523726851855
 20
1798.53515625
 10
-25.859375
 20
1797.65625
 10
-29.381872106481488
 20
1796.4908854166667
 10
-32.68518518518519
 20
1795.0
 10
-35.771484375
 20
1793.14453125
 10
-38.64293981481482
 20
1790.8854166666665
 10
-41.30172164351852
 20
1788.1835937499998
 10
-43.75
 20
1785.0
 10
-45.98994502314815
 20
1781.295572916667
 10
-48.02372685185185
 20
1777.0312499999998
 10
-49.853515625
 20
1772.16796875
 10
-51.48148148148148
 20
1766.666666666667
 10
-52.90979456018519
 20
1760.4882812499998
 10
-54.140625
 20
1753.59375
 10
-55.176142939814824
 20
1745.9440104166672
 10
-56.018518518518526
 20
1737.5000000000002
 10
-56.669921875
 20
1728.22265625
 10
-57.13252314814814
 20
1718.0729166666667
 10
-57.40849247685186
 20
1707.01171875
 10
-57.5
 20
1695.0
 10
-57.49329770693949
 20
1686.8219865894544
 10
-57.473231541472074
 20
1675.4949960100412
 10
-57.439862574168984
 20
1661.5438884543835
 10
-57.39325187560145
 20
1645.4935241151034
 10
-57.33346051634066
 20
1627.868763184823
 10
-57.260549566957856
 20
1609.1944658561654
 10
-57.17458009802424
 20
1589.9954923217524
 10
-57.07561318011102
 20
1570.7967027742066
 10
-56.96370988378945
 20
1552.1229574061508
 10
-56.8389312796307
 20
1534.499116410207
 10
-56.70133843820601
 20
1518.4500399789974
 10
-56.55099243008661
 20
1504.5005883051451
 10
-56.38795432584368
 20
1493.1756215812716
 10
-56.21228519604847
 20
1485.0
 10
-55.67091128371976
 20
1465.508474576271
 10
-55.15066750418191
 20
1446.0169491525423
 10
-54.65155202472306
 20
1426.5254237288136
 10
-54.173563087260845
 20
1407.0338983050847
 10
-53.7166990083133
 20
1387.542372881356
 10
-53.280958178962464
 20
1368.050847457627
 10
-52.86633906483985
 20
1348.5593220338983
 10
-52.47284020607913
 20
1329.0677966101694
 10
-52.10046021731614
 20
1309.5762711864406
 10
-51.749197787641606
 20
1290.084745762712
 10
-51.41905168058656
 20
1270.593220338983
 10
-51.110020734100544
 20
1251.1016949152543
 10
-50.822103860540665
 20
1231.6101694915255
 10
-50.5553000466316
 20
1212.1186440677966
 10
-50.309608353461954
 20
1192.6271186440677
 10
-50.085027916476974
 20
1173.135593220339
 10
-49.88155794543127
 20
1153.6440677966102
 10
-49.699197724410624
 20
1134.1525423728813
 10
-49.53794661180291
 20
1114.6610169491526
 10
-49.39780404027624
 20
1095.1694915254238
 10
-49.27876951679718
 20
1075.677966101695
 10
-49.180842622594355
 20
1056.186440677966
 10
-49.10402301316208
 20
1036.6949152542372
 10
-49.04831041825673
 20
1017.2033898305085
 10
-49.013704641896766
 20
997.7118644067797
 10
-49.00020556234085
 20
978.2203389830509
 10
-49.007813132102456
 20
958.728813559322
 10
-49.036527377946186
 20
939.2372881355932
 10
-49.086348400880524
 20
919.7457627118644
 10
-49.1572763761651
 20
900.2542372881355
 10
-49.249311553321604
 20
880.7627118644068
 10
-49.362454256119236
 20
861.271186440678
 10
-49.49670488259653
 20
841.7796610169491
 10
-49.652063905065006
 20
822.2881355932203
 10
-49.82853187011278
 20
802.7966101694915
 10
-50.02610939861188
 20
783.3050847457628
 10
-50.2447971857473
 20
763.8135593220338
 10
-50.48459600100614
 20
744.3220338983051
 10
-50.745506688199384
 20
724.8305084745763
 10
-51.027530165487406
 20
705.3389830508474
 10
-51.33066742537994
 20
685.8474576271186
 10
-51.65491953476521
 20
666.3559322033898
 10
-52.000287634920824
 20
646.8644067796611
 10
-52.36677294153924
 20
627.3728813559321
 10
-52.75437674474961
 20
607.8813559322034
 10
-53.16310040913231
 20
588.3898305084746
 10
-53.592945373755356
 20
568.8983050847457
 10
-54.04391315218527
 20
549.4067796610169
 10
-54.516005332534405
 20
529.9152542372881
 10
-55.00922357746458
 20
510.4237288135593
 10
-55.52356962423073
 20
490.93220338983053
 10
-56.05904528471365
 20
471.4406779661017
 10
-56.61565244543817
 20
451.9491525423729
 10
-57.19339306762777
 20
432.45762711864404
 10
-57.792269187215425
 20
412.96610169491527
 10
-58.41228291489824
 20
393.47457627118644
 10
-59.05343643616652
 20
373.9830508474576
 10
-59.71573201133651
 20
354.49152542372883
 10
-60.399171975604986
 20
335.0
 10
-60.627034811237564
 20
326.95686308320677
 10
-60.851666822437366
 20
316.0001511689668
 10
-61.070883265657464
 20
302.6154116243206
 10
-61.28249939735094
 20
287.28819181630877
 10
-61.484330473970886
 20
270.5040391119718
 10
-61.674191751970376
 20
252.74850087835028
 10
-61.84989848780249
 20
234.50712448248476
 10
-62.00926593792032
 20
216.26545729141574
 10
-62.15010935877696
 20
198.50904667218387
 10
-62.27024400682548
 20
181.72343999182962
 10
-62.36748513851895
 20
166.39418461739356
 10
-62.43964801031049
 20
153.0068279159163
 10
-62.48454787865314
 20
142.0469172544382
 10
-62.5
 20
134.0
 10
-62.33326099537037
 20
118.39742476851848
 10
-61.8431712962963
 20
104.05439814814812
 10
-61.044921875
 20
90.91796875
 10
-59.953703703703695
 20
78.93518518518515
 10
-58.58470775462963
 20
68.0530960648148
 10
-56.953125
 20
58.21875
 10
-55.07414641203704
 20
49.37919560185183
 10
-52.96296296296296
 20
41.481481481481474
 10
-50.634765625
 20
34.47265625
 10
-48.10474537037037
 20
28.29976851851851
 10
-45.38809317129629
 20
22.909866898148145
 10
-42.5
 20
18.25
 10
-39.4556568287037
 20
14.267216435185183
 10
-36.27025462962962
 20
10.90856481481481
 10
-32.958984375
 20
8.12109375
 10
-29.537037037037035
 20
5.851851851851851
 10
-26.019603587962962
 20
4.04788773148148
 10
-22.421875
 20
2.65625
 10
-18.75904224537037
 20
1.623987268518518
 10
-15.046296296296294
 20
0.898148148148148
 10
-11.298828125
 20
0.42578125
 10
-7.531828703703703
 20
0.15393518518518517
 10
-3.7604890046296298
 20
0.02965856481481481
 10
-0.0
 20
0.0
 10
0.0
 20
0.0
  0
LWPOLYLINE
  5
30
330
17
100
AcDbEntity
  8
0
100
AcDbPolyline
 90
34
 70
0
 10
-60.33326099537037
 20
117.71217712177122
 10
-60.48454787865314
 20
141.32841328413284
 10
-60.43964801031049
 20
153.13653136531366
 10
-60.27024400682548
 20
182.65682656826567
 10
-59.674191751970376
 20
253.50553505535055
 10
-59.484330473970886
 20
271.21771217712177
 10
-57.71573201133651
 20
353.87453874538744
 10
-55.792269187215425
 20
412.9151291512915
 10
-54.05904528471365
 20
471.95571955719555
 10
-52.04391315218527
 20
548.7084870848709
 10
-50.75437674474961
 20
607.7490774907749
 10
-49.65491953476521
 20
666.789667896679
 10
-48.745506688199384
 20
725.830258302583
 10
-48.48459600100614
 20
743.5424354243543
 10
-47.82853187011278
 20
802.5830258302583
 10
-47.362454256119236
 20
861.6236162361623
 10
-47.086348400880524
 20
920.6642066420665
 10
-47.036527377946186
 20
938.3763837638377
 10
-47.013704641896766
 20
997.4169741697417
 10
-47.180842622594355
 20
1056.4575645756458
 10
-47.53794661180291
 20
1115.4981549815498
 10
-47.699197724410624
 20
1133.210332103321
 10
-48.309608353461954
 20
1192.2509225092251
 10
-49.110020734100544
 20
1251.291512915129
 10
-50.10046021731614
 20
1310.3321033210332
 10
-51.7166990083133
 20
1387.0848708487085
 10
-53.15066750418191
 20
1446.1254612546124
 10
-54.38795432584368
 20
1493.3579335793358
 10
-54.55099243008661
 20
1505.1660516605166
 10
-54.8389312796307
 20
1534.6863468634685
 10
-54.96370988378945
 20
1552.3985239852398
 10
-55.07561318011102
 20
1570.110701107011
 10
-55.473231541472074
 20
1676.3837638376383
 10
-55.5
 20
1694.0959409594095
  0
LWPOLYLINE
  5
31
330
17
100
AcDbEntity
  8
0
100
AcDbPolyline
 90
34
 70
0
 10
60.33326099537037
 20
117.71217712177122
 10
60.48454787865314
 20
141.32841328413284
 10
60.43964801031049
 20
153.13653136531366
 10
60.27024400682548
 20
182.65682656826567
 10
59.674191751970376
 20
253.50553505535055
 10
59.484330473970886
 20
271.21771217712177
 10
57.71573201133651
 20
353.87453874538744
 10
55.792269187215425
 20
412.9151291512915
 10
54.05904528471365
 20
471.95571955719555
 10
52.04391315218527
 20
548.7084870848709
 10
50.75437674474961
 20
607.7490774907749
 10
49.65491953476521
 20
666.789667896679
 10
48.745506688199384
 20
725.830258302583
 10
48.48459600100614
 20
743.5424354243543
 10
47.82853187011278
 20
802.5830258302583
 10
47.362454256119236
 20
861.6236162361623
 10
47.086348400880524
 20
920.6642066420665
 10
47.036527377946186
 20
938.3763837638377
 10
47.013704641896766
 20
997.4169741697417
 10
47.180842622594355
 20
1056.4575645756458
 10
47.53794661180291
 20
1115.4981549815498
 10
47.699197724410624
 20
1133.210332103321
 10
48.309608353461954
 20
1192.2509225092251
 10
49.110020734100544
 20
1251.291512915129
 10
50.10046021731614
 20
1310.3321033210332
 10
51.7166990083133
 20
1387.0848708487085
 10
53.15066750418191
 20
1446.1254612546124
 10
54.38795432584368
 20
1493.3579335793358
 10
54.55099243008661
 20
1505.1660516605166
 10
54.8389312796307
 20
1534.6863468634685
 10
54.96370988378945
 20
1552.3985239852398
 10
55.07561318011102
 20
1570.110701107011
 10
55.473231541472074
 20
1676.3837638376383
 10
55.5
 20
1694.0959409594095
  0
ENDSEC
  0
SECTION
  2
OBJECTS
  0
DICTIONARY
  5
A
330
0
100
AcDbDictionary
280
0
281
1
  3
ACAD_COLOR
350
B
  3
ACAD_GROUP
350
C
  3
ACAD_LAYOUT
350
D
  3
ACAD_MATERIAL
350
E
  3
ACAD_MLEADERSTYLE
350
F
  3
ACAD_MLINESTYLE
350
10
  3
ACAD_PLOTSETTINGS
350
11
  3
ACAD_PLOTSTYLENAME
350
12
  3
ACAD_SCALELIST
350
14
  3
ACAD_TABLESTYLE
350
15
  3
ACAD_VISUALSTYLE
350
16
  3
EZDXF_META
350
2D
  0
DICTIONARY
  5
B
330
A
100
AcDbDictionary
280
0
281
1
  0
DICTIONARY
  5
C
330
A
100
AcDbDictionary
280
0
281
1
  0
DICTIONARY
  5
D
330
A
100
AcDbDictionary
280
0
281
1
  3
Model
350
1A
  3
Layout1
350
1E
  0
DICTIONARY
  5
E
330
A
100
AcDbDictionary
280
0
281
1
  3
ByBlock
350
1F
  3
ByLayer
350
20
  3
Global
350
21
  0
DICTIONARY
  5
F
330
A
100
AcDbDictionary
280
0
281
1
  3
Standard
350
2C
  0
DICTIONARY
  5
10
330
A
100
AcDbDictionary
280
0
281
1
  3
Standard
350
22
  0
DICTIONARY
  5
11
330
A
100
AcDbDictionary
280
0
281
1
  0
ACDBDICTIONARYWDFLT
  5
12
330
A
100
AcDbDictionary
280
0
281
1
  3
Normal
350
13
100
AcDbDictionaryWithDefault
340
13
  0
ACDBPLACEHOLDER
  5
13
330
12
  0
DICTIONARY
  5
14
330
A
100
AcDbDictionary
280
0
281
1
  0
DICTIONARY
  5
15
330
A
100
AcDbDictionary
280
0
281
1
  0
DICTIONARY
  5
16
330
A
100
AcDbDictionary
280
0
281
1
  0
LAYOUT
  5
1A
330
D
100
AcDbPlotSettings
  1

  2
Adobe PDF
  4
A3
  6

 40
7.5
 41
20.0
 42
7.5
 43
20.0
 44
420.0
 45
297.0
 46
0.0
 47
0.0
 48
0.0
 49
0.0
140
0.0
141
0.0
142
1.0
143
1.0
 70
1024
 72
1
 73
0
 74
5
  7

 75
16
 76
0
 77
2
 78
300
147
1.0
148
0.0
149
0.0
100
AcDbLayout
  1
Model
 70
1
 71
0
 10
0.0
 20
0.0
 11
420.0
 21
297.0
 12
0.0
 22
0.0
 32
0.0
 14
1e+20
 24
1e+20
 34
1e+20
 15
-1e+20
 25
-1e+20
 35
-1e+20
146
0.0
 13
0.0
 23
0.0
 33
0.0
 16
1.0
 26
0.0
 36
0.0
 17
0.0
 27
1.0
 37
0.0
 76
1
330
17
  0
LAYOUT
  5
1E
330
D
100
AcDbPlotSettings
  1

  2
Adobe PDF
  4
A3
  6

 40
7.5
 41
20.0
 42
7.5
 43
20.0
 44
420.0
 45
297.0
 46
0.0
 47
0.0
 48
0.0
 49
0.0
140
0.0
141
0.0
142
1.0
143
1.0
 70
0
 72
1
 73
0
 74
5
  7

 75
16
 76
0
 77
2
 78
300
147
1.0
148
0.0
149
0.0
100
AcDbLayout
  1
Layout1
 70
1
 71
1
 10
0.0
 20
0.0
 11
420.0
 21
297.0
 12
0.0
 22
0.0
 32
0.0
 14
1e+20
 24
1e+20
 34
1e+20
 15
-1e+20
 25
-1e+20
 35
-1e+20
146
0.0
 13
0.0
 23
0.0
 33
0.0
 16
1.0
 26
0.0
 36
0.0
 17
0.0
 27
1.0
 37
0.0
 76
1
330
1B
  0
MATERIAL
  5
1F
102
{ACAD_REACTORS
330
E
102
}
330
E
100
AcDbMaterial
  1
ByBlock
  2

 70
0
 40
1.0
 71
1
 41
1.0
 91
-1023410177
 42
1.0
 72
1
  3

 73
1
 74
1
 75
1
 44
0.5
 73
0
 45
1.0
 46
1.0
 77
1
  4

 78
1
 79
1
170
1
 48
1.0
171
1
  6

172
1
173
1
174
1
140
1.0
141
1.0
175
1
  7

176
1
177
1
178
1
143
1.0
179
1
  8

270
1
271
1
272
1
145
1.0
146
1.0
273
1
  9

274
1
275
1
276
1
 42
1.0
 72
1
  3

 73
1
 74
1
 75
1
 94
63
  0
MATERIAL
  5
20
102
{ACAD_REACTORS
330
E
102
}
330
E
100
AcDbMaterial
  1
ByLayer
  2

 70
0
 40
1.0
 71
1
 41
1.0
 91
-1023410177
 42
1.0
 72
1
  3

 73
1
 74
1
 75
1
 44
0.5
 73
0
 45
1.0
 46
1.0
 77
1
  4

 78
1
 79
1
170
1
 48
1.0
171
1
  6

172
1
173
1
174
1
140
1.0
141
1.0
175
1
  7

176
1
177
1
178
1
143
1.0
179
1
  8

270
1
271
1
272
1
145
1.0
146
1.0
273
1
  9

274
1
275
1
276
1
 42
1.0
 72
1
  3

 73
1
 74
1
 75
1
 94
63
  0
MATERIAL
  5
21
102
{ACAD_REACTORS
330
E
102
}
330
E
100
AcDbMaterial
  1
Global
  2

 70
0
 40
1.0
 71
1
 41
1.0
 91
-1023410177
 42
1.0
 72
1
  3

 73
1
 74
1
 75
1
 44
0.5
 73
0
 45
1.0
 46
1.0
 77
1
  4

 78
1
 79
1
170
1
 48
1.0
171
1
  6

172
1
173
1
174
1
140
1.0
141
1.0
175
1
  7

176
1
177
1
178
1
143
1.0
179
1
  8

270
1
271
1
272
1
145
1.0
146
1.0
273
1
  9

274
1
275
1
276
1
 42
1.0
 72
1
  3

 73
1
 74
1
 75
1
 94
63
  0
MLINESTYLE
  5
22
102
{ACAD_REACTORS
330
10
102
}
330
10
100
AcDbMlineStyle
  2
Standard
 70
0
  3

 62
256
 51
90.0
 52
90.0
 71
2
 49
0.5
 62
256
  6
BYLAYER
 49
-0.5
 62
256
  6
BYLAYER
  0
MLEADERSTYLE
  5
2C
102
{ACAD_REACTORS
330
F
102
}
330
F
100
AcDbMLeaderStyle
179
2
170
2
171
1
172
0
 90
2
 40
0.0
 41
0.0
173
1
 91
-1056964608
 92
-2
290
1
 42
2.0
291
1
 43
8.0
  3
Standard
 44
4.0
300

342
29
174
1
175
1
176
0
178
1
 93
-1056964608
 45
4.0
292
0
297
0
 46
4.0
 94
-1056964608
 47
1.0
 49
1.0
140
1.0
294
1
141
0.0
177
0
142
1.0
295
0
296
0
143
3.75
271
0
272
9
273
9
  0
DICTIONARY
  5
2D
330
A
100
AcDbDictionary
281
1
  3
CREATED_BY_EZDXF
350
2E
  3
WRITTEN_BY_EZDXF
350
34
  0
DICTIONARYVAR
  5
2E
330
2D
100
DictionaryVariables
280
0
  1
1.1.4 @ 2026-04-28T18:22:04.991740+00:00
  0
DICTIONARYVAR
  5
34
330
2D
100
DictionaryVariables
280
0
  1
1.1.4 @ 2026-04-28T18:22:04.998700+00:00
  0
ENDSEC
  0
EOF
